<svg width="2121" height="2121" viewBox="0 0 2121 2121" fill="none" xmlns="http://www.w3.org/2000/svg">
<rect width="2120.13" height="2120.13" rx="20" fill="black"/>
<path d="M1344.11 1348.99L1701.46 1825.1L1694.54 1740.21L1932.48 1928.68L1670.19 1532.63L1677.11 1617.51L1344.11 1348.99ZM1377.29 1329.51L1757.71 1495.92L1733.3 1443.7L1925.29 1463.38L1668.3 1318.88L1692.72 1371.1L1377.29 1329.51ZM1318.88 1390.58L1365.82 1797.63L1398.78 1745.06L1486.39 1924.31L1474.03 1614.1L1441.08 1666.66L1318.88 1390.58Z" fill="#6E14D4"/>
<path d="M786.936 806.628L429.575 330.496L436.493 415.382L198.541 226.904L460.844 622.975L453.925 538.09L786.936 806.628ZM753.755 826.109L373.318 659.683L397.737 711.912L205.732 692.226L462.732 836.737L438.314 784.508L753.755 826.109ZM812.174 765.028L765.225 357.964L732.272 410.534L644.656 231.273L657.013 541.504L689.966 488.934L812.174 765.028Z" fill="#6E14D4"/>
<circle cx="1063.61" cy="1063.61" r="354.537" fill="#6E14D4"/>
</svg>
